<?xml version="1.0" encoding="utf-8"?>
<!-- Generator: Adobe Illustrator 21.0.0, SVG Export Plug-In . SVG Version: 6.00 Build 0)  -->
<svg version="1.1" id="Calque_1" xmlns="http://www.w3.org/2000/svg" xmlns:xlink="http://www.w3.org/1999/xlink" x="0px" y="0px"
	 viewBox="0 0 463 68" style="enable-background:new 0 0 463 68;" xml:space="preserve">
<style type="text/css">
	.st0{fill:#333333;}
	.st1{fill:none;}
</style>
<g>
	<g>
		<path class="st0" d="M101.1,45.6h13V49H97V19h4.1V45.6z"/>
		<path class="st0" d="M137.6,45.5c1.2,0,2.3-0.2,3.3-0.6c1-0.4,1.8-1,2.5-1.7c0.7-0.7,1.2-1.6,1.5-2.7c0.4-1,0.5-2.2,0.5-3.4V19h4
			v18c0,1.7-0.3,3.3-0.8,4.8c-0.5,1.5-1.3,2.7-2.3,3.8c-1,1.1-2.3,1.9-3.7,2.5c-1.5,0.6-3.1,0.9-4.9,0.9s-3.5-0.3-4.9-0.9
			c-1.5-0.6-2.7-1.4-3.7-2.5c-1-1.1-1.8-2.3-2.3-3.8c-0.5-1.5-0.8-3-0.8-4.8V19h4v18c0,1.2,0.2,2.4,0.5,3.4s0.9,1.9,1.5,2.7
			c0.7,0.7,1.5,1.3,2.5,1.7C135.3,45.3,136.4,45.5,137.6,45.5z"/>
		<path class="st0" d="M190,34c0,2.2-0.4,4.3-1.1,6.1c-0.7,1.8-1.7,3.4-3,4.7c-1.3,1.3-2.9,2.3-4.7,3c-1.8,0.7-3.8,1.1-6,1.1H164V19
			h11.2c2.2,0,4.2,0.4,6,1.1c1.8,0.7,3.4,1.7,4.7,3.1c1.3,1.3,2.3,2.9,3,4.7C189.6,29.7,190,31.8,190,34z M185.8,34
			c0-1.8-0.3-3.5-0.8-4.9c-0.5-1.5-1.2-2.7-2.1-3.7c-0.9-1-2-1.8-3.3-2.3c-1.3-0.5-2.8-0.8-4.4-0.8h-7.1v23.4h7.1
			c1.6,0,3.1-0.3,4.4-0.8c1.3-0.5,2.4-1.3,3.3-2.3c0.9-1,1.6-2.2,2.1-3.7C185.6,37.5,185.8,35.9,185.8,34z"/>
		<path class="st0" d="M199.5,19h3.4c0.4,0,0.7,0.1,0.9,0.3c0.2,0.2,0.4,0.4,0.5,0.7l6.2,20.9c0.1,0.4,0.2,0.8,0.3,1.2
			c0.1,0.4,0.2,0.9,0.3,1.4c0.1-0.5,0.2-0.9,0.3-1.4c0.1-0.4,0.2-0.8,0.3-1.2l7.1-20.9c0.1-0.2,0.2-0.5,0.5-0.7
			c0.2-0.2,0.5-0.3,0.9-0.3h1.2c0.4,0,0.7,0.1,0.9,0.3c0.2,0.2,0.4,0.4,0.5,0.7l7,20.9c0.3,0.7,0.5,1.6,0.7,2.5
			c0.1-0.5,0.2-0.9,0.2-1.3c0.1-0.4,0.2-0.8,0.3-1.2l6.2-20.9c0.1-0.3,0.2-0.5,0.5-0.7c0.2-0.2,0.5-0.3,0.9-0.3h3.2l-9.4,30h-3.6
			L221,26.1c-0.2-0.4-0.3-0.9-0.4-1.5c-0.1,0.3-0.1,0.5-0.2,0.8c-0.1,0.3-0.1,0.5-0.2,0.7L212.5,49h-3.6L199.5,19z"/>
		<path class="st0" d="M257.9,49h-4.1V19h4.1V49z"/>
		<path class="st0" d="M287,45.8c0.8,0,1.5,0,2.2-0.1c0.7-0.1,1.3-0.2,1.9-0.3c0.6-0.1,1.1-0.3,1.7-0.5c0.5-0.2,1-0.5,1.6-0.7v-6.5
			h-4.5c-0.3,0-0.5-0.1-0.6-0.2c-0.2-0.1-0.2-0.3-0.2-0.6v-2.3h9v11.3c-0.7,0.5-1.5,1-2.3,1.4c-0.8,0.4-1.7,0.7-2.6,1
			c-0.9,0.3-1.9,0.5-2.9,0.6c-1,0.1-2.2,0.2-3.4,0.2c-2.1,0-4.1-0.4-5.9-1.1c-1.8-0.7-3.3-1.8-4.6-3.1c-1.3-1.3-2.3-2.9-3-4.7
			c-0.7-1.8-1.1-3.9-1.1-6.1c0-2.2,0.4-4.3,1.1-6.1s1.7-3.4,3-4.7c1.3-1.3,2.9-2.3,4.7-3.1c1.8-0.7,3.9-1.1,6.2-1.1
			c1.2,0,2.2,0.1,3.2,0.3c1,0.2,1.9,0.4,2.8,0.7c0.9,0.3,1.6,0.7,2.4,1.2c0.7,0.5,1.4,1,2,1.5l-1.1,1.8c-0.2,0.4-0.5,0.6-0.9,0.6
			c-0.2,0-0.5-0.1-0.7-0.2c-0.3-0.2-0.7-0.4-1.1-0.7c-0.4-0.3-0.9-0.5-1.5-0.8c-0.6-0.3-1.3-0.5-2.2-0.6c-0.8-0.2-1.8-0.3-2.9-0.3
			c-1.7,0-3.1,0.3-4.5,0.8c-1.3,0.5-2.5,1.3-3.4,2.3c-0.9,1-1.7,2.2-2.2,3.6c-0.5,1.4-0.8,3-0.8,4.8c0,1.9,0.3,3.5,0.8,5
			c0.5,1.5,1.3,2.7,2.2,3.7c1,1,2.1,1.8,3.4,2.3C284,45.5,285.4,45.8,287,45.8z"/>
		<path class="st0" d="M331,19v4.4h-13.3v8.9h11.2v4.5h-11.2V49H312V19H331z"/>
		<path class="st0" d="M349.6,49H344V19h5.6V49z"/>
		<path class="st0" d="M376.3,44.2c1.1,0,2-0.2,2.9-0.5c0.8-0.4,1.6-0.9,2.1-1.5c0.6-0.6,1-1.4,1.3-2.3c0.3-0.9,0.5-1.9,0.5-3.1V19
			h5.5v17.8c0,1.8-0.3,3.4-0.9,4.9c-0.6,1.5-1.4,2.8-2.5,3.9c-1.1,1.1-2.4,1.9-3.9,2.5c-1.5,0.6-3.2,0.9-5.1,0.9
			c-1.9,0-3.6-0.3-5.1-0.9c-1.5-0.6-2.8-1.5-3.9-2.5c-1.1-1.1-1.9-2.4-2.4-3.9c-0.6-1.5-0.9-3.1-0.9-4.9V19h5.5v17.7
			c0,1.1,0.2,2.2,0.5,3.1c0.3,0.9,0.8,1.7,1.3,2.3c0.6,0.6,1.3,1.2,2.1,1.5C374.3,44,375.2,44.2,376.3,44.2z"/>
		<path class="st0" d="M423.7,19v2.1c0,0.6-0.2,1.2-0.5,1.7l-15.4,21.7h15.6V49h-22.8v-2.2c0-0.3,0-0.5,0.1-0.8
			c0.1-0.3,0.2-0.5,0.4-0.7l15.4-21.8h-15V19H423.7z"/>
		<path class="st0" d="M462,49h-4.3c-0.5,0-0.9-0.1-1.2-0.4c-0.3-0.2-0.5-0.5-0.7-0.9l-2.2-6.1h-12.4l-2.2,6.1
			c-0.1,0.3-0.3,0.6-0.7,0.9c-0.3,0.3-0.7,0.4-1.2,0.4h-4.3l11.8-30h5.7L462,49z M442.6,37.7h9.6l-3.7-10c-0.2-0.4-0.4-1-0.6-1.6
			c-0.2-0.6-0.4-1.3-0.6-2c-0.2,0.7-0.4,1.4-0.6,2c-0.2,0.6-0.4,1.1-0.5,1.6L442.6,37.7z"/>
	</g>
	<g>
		<g>
			<rect x="7" y="7" class="st1" width="54" height="54"/>
			<path class="st0" d="M1,1v66h66V1H1z M61,61H7V7h54V61z"/>
		</g>
		<path class="st0" d="M49,25v-6H31v12h-6c-3.3,0-6,2.7-6,6v12h6V37h6v6h6v-6h6v-6h-6v-6H49z"/>
	</g>
</g>
</svg>
